<svg width="42" height="75" viewBox="0 0 42 75" fill="none" xmlns="http://www.w3.org/2000/svg">
<g id="logo">
<path id="Rectangle 5" d="M18.8196 72.4609C10.0318 72.509 2.87315 65.4239 2.8304 56.6361L2.71012 31.9125C2.68636 27.0303 6.62486 23.0509 11.507 23.0242L12.7604 23.0174C21.5482 22.9694 28.7068 30.0544 28.7496 38.8423L28.8699 63.5658C28.8936 68.448 24.9551 72.4274 20.073 72.4541L18.8196 72.4609Z" stroke="#0A225F" stroke-width="3.53601"/>
<path id="Rectangle 6" d="M22.8795 51.416C17.9974 51.4427 14.0204 47.5065 13.9966 42.6244L13.7992 2.04432C28.3185 2.87681 39.8674 14.8751 39.9391 29.6199L40.0017 42.4822C40.0255 47.3644 36.087 51.3438 31.2048 51.3705L22.8795 51.416Z" stroke="#0A225F" stroke-width="3.53601"/>
</g>
</svg>
