<svg width="34" height="36" viewBox="0 0 34 36" fill="none" xmlns="http://www.w3.org/2000/svg">
<g id="more-horizontal (1) 1">
<path id="Vector" d="M16.9518 19.9111C17.7111 19.9111 18.3265 19.2587 18.3265 18.4539C18.3265 17.6491 17.7111 16.9967 16.9518 16.9967C16.1926 16.9967 15.5771 17.6491 15.5771 18.4539C15.5771 19.2587 16.1926 19.9111 16.9518 19.9111Z" stroke="black" stroke-opacity="0.5" stroke-width="1.4144" stroke-linecap="round" stroke-linejoin="round"/>
<path id="Vector_2" d="M26.5749 19.9111C27.3341 19.9111 27.9496 19.2587 27.9496 18.4539C27.9496 17.6491 27.3341 16.9967 26.5749 16.9967C25.8157 16.9967 25.2002 17.6491 25.2002 18.4539C25.2002 19.2587 25.8157 19.9111 26.5749 19.9111Z" stroke="black" stroke-opacity="0.5" stroke-width="1.4144" stroke-linecap="round" stroke-linejoin="round"/>
<path id="Vector_3" d="M7.32879 19.9111C8.08801 19.9111 8.70348 19.2587 8.70348 18.4539C8.70348 17.6491 8.08801 16.9967 7.32879 16.9967C6.56957 16.9967 5.9541 17.6491 5.9541 18.4539C5.9541 19.2587 6.56957 19.9111 7.32879 19.9111Z" stroke="black" stroke-opacity="0.5" stroke-width="1.4144" stroke-linecap="round" stroke-linejoin="round"/>
</g>
</svg>
