<svg width="34" height="28" viewBox="0 0 34 28" fill="none" xmlns="http://www.w3.org/2000/svg">
<g id="more-horizontal (1) 3">
<path id="Vector" d="M16.9518 18.9794C17.7111 18.9794 18.3265 18.3269 18.3265 17.5222C18.3265 16.7174 17.7111 16.0649 16.9518 16.0649C16.1926 16.0649 15.5771 16.7174 15.5771 17.5222C15.5771 18.3269 16.1926 18.9794 16.9518 18.9794Z" stroke="black" stroke-opacity="0.5" stroke-width="1.4144" stroke-linecap="round" stroke-linejoin="round"/>
<path id="Vector_2" d="M26.5749 18.9794C27.3341 18.9794 27.9496 18.3269 27.9496 17.5222C27.9496 16.7174 27.3341 16.0649 26.5749 16.0649C25.8157 16.0649 25.2002 16.7174 25.2002 17.5222C25.2002 18.3269 25.8157 18.9794 26.5749 18.9794Z" stroke="black" stroke-opacity="0.5" stroke-width="1.4144" stroke-linecap="round" stroke-linejoin="round"/>
<path id="Vector_3" d="M7.32879 18.9794C8.08801 18.9794 8.70348 18.3269 8.70348 17.5222C8.70348 16.7174 8.08801 16.0649 7.32879 16.0649C6.56957 16.0649 5.9541 16.7174 5.9541 17.5222C5.9541 18.3269 6.56957 18.9794 7.32879 18.9794Z" stroke="black" stroke-opacity="0.5" stroke-width="1.4144" stroke-linecap="round" stroke-linejoin="round"/>
</g>
</svg>
