<svg width="22" height="22" viewBox="0 0 22 22" fill="none" xmlns="http://www.w3.org/2000/svg">
<g id="social">
<path id="instagram" fill-rule="evenodd" clip-rule="evenodd" d="M5.76202 1.0238C3.14524 1.0238 1.02393 3.14512 1.02393 5.7619V16.2381C1.02393 18.8549 3.14524 20.9762 5.76202 20.9762H16.2382C18.855 20.9762 20.9763 18.8549 20.9763 16.2381V5.7619C20.9763 3.14512 18.855 1.0238 16.2382 1.0238H5.76202ZM0.0239258 5.7619C0.0239258 2.59284 2.59296 0.0238037 5.76202 0.0238037H16.2382C19.4073 0.0238037 21.9763 2.59284 21.9763 5.7619V16.2381C21.9763 19.4072 19.4073 21.9762 16.2382 21.9762H5.76202C2.59296 21.9762 0.0239258 19.4072 0.0239258 16.2381V5.7619ZM11.5868 7.30391C10.8189 7.19005 10.0347 7.32121 9.34572 7.67872C8.65671 8.03623 8.09797 8.6019 7.74898 9.29527C7.39999 9.98864 7.27851 10.7744 7.40183 11.5408C7.52516 12.3072 7.88699 13.0151 8.43588 13.564C8.98477 14.1129 9.69275 14.4748 10.4591 14.5981C11.2255 14.7214 12.0113 14.5999 12.7046 14.2509C13.398 13.9019 13.9637 13.3432 14.3212 12.6542C14.6787 11.9652 14.8099 11.181 14.696 10.4131C14.5799 9.62991 14.2149 8.9048 13.655 8.34491C13.0951 7.78503 12.37 7.42006 11.5868 7.30391ZM8.88515 6.7911C9.76086 6.33671 10.7575 6.17002 11.7335 6.31473C12.7289 6.46235 13.6505 6.92621 14.3621 7.6378C15.0737 8.3494 15.5376 9.27099 15.6852 10.2665C15.8299 11.2424 15.6632 12.2391 15.2088 13.1148C14.7544 13.9905 14.0355 14.7006 13.1542 15.1442C12.273 15.5877 11.2743 15.7421 10.3003 15.5854C9.32621 15.4286 8.42639 14.9688 7.72877 14.2711C7.03116 13.5735 6.57127 12.6737 6.41453 11.6996C6.2578 10.7256 6.41219 9.72693 6.85574 8.84568C7.2993 7.96443 8.00944 7.24549 8.88515 6.7911ZM16.762 4.73809C16.4859 4.73809 16.262 4.96195 16.262 5.23809C16.262 5.51423 16.4859 5.73809 16.762 5.73809H16.772C17.0482 5.73809 17.272 5.51423 17.272 5.23809C17.272 4.96195 17.0482 4.73809 16.772 4.73809H16.762Z" fill="white"/>
</g>
</svg>
