<svg width="303" height="343" viewBox="0 0 303 343" fill="none" xmlns="http://www.w3.org/2000/svg">
<path d="M302.573 62.3789C299.534 140.216 297.514 182.621 290.939 246.624C285.377 271.099 279.493 281.226 260.4 288.134C184.362 309.838 131.021 327.216 69.1645 342.024C43.9798 341.42 35.0011 334.859 26.991 320.177C13.3037 268.391 10.7438 211.689 0.814392 139.573C-0.516571 111.761 4.98877 100.465 26.991 88.5957C107.599 54.7465 224.77 8.48892 224.77 8.48892C224.77 8.48892 247.167 -2.28758 260.4 0.478247C275.875 5.33123 282.608 10.7047 290.939 21.5973C300.55 34.4498 303.068 43.3867 302.573 62.3789Z" fill="white"/>
</svg>
